
<svg width="1722" height="683" viewBox="0 0 1722 683" fill="none" xmlns="http://www.w3.org/2000/svg">
<line x1="567" y1="672.168" x2="1155" y2="672.168" stroke="#0c120c" stroke-width="15"/>
<line x1="566.5" y1="680.001" x2="566.5" y2="357.001" stroke="#0c120c" stroke-width="15"/>
<line x1="1159.5" y1="357" x2="1159.5" y2="680" stroke="#0c120c" stroke-width="15"/>
<path d="M570 364L869.211 108" stroke="#0c120c" stroke-width="15"/>
<path d="M867 120.668L1161 365" stroke="#0c120c" stroke-width="15"/>
<g filter="url(#filter0_d_112_59)">
<rect x="822.5" y="263.5" width="81" height="82" rx="8" stroke="#0c120c" stroke-width="15" shape-rendering="crispEdges"/>
</g>
<rect x="760.5" y="467.501" width="203" height="205" stroke="#0c120c" stroke-width="15"/>
<line x1="1629" y1="674.5" x2="96.9999" y2="674.5" stroke="#0c120c" stroke-width="15"/>
<line x1="1630.38" y1="179" x2="1630.38" y2="673" stroke="#0c120c" stroke-width="18" stroke-linecap="round"/>
<line x1="1632.66" y1="229.818" x2="1712.52" y2="290" stroke="#0c120c" stroke-width="15" stroke-linecap="round"/>
<line x1="1629.48" y1="229.143" x2="1546.29" y2="289.585" stroke="#0c120c" stroke-width="15" stroke-linecap="round"/>
<line x1="1626.99" y1="291.856" x2="1545.77" y2="350.869" stroke="#0c120c" stroke-width="15" stroke-linecap="round"/>
<line x1="1637.47" y1="294.061" x2="1714.31" y2="351.963" stroke="#0c120c" stroke-width="15" stroke-linecap="round"/>
<line x1="1638.19" y1="478.105" x2="1713.59" y2="534.919" stroke="#0c120c" stroke-width="15" stroke-linecap="round"/>
<line x1="1633.61" y1="413.536" x2="1713.17" y2="473.489" stroke="#0c120c" stroke-width="15" stroke-linecap="round"/>
<line x1="1625.45" y1="354.112" x2="1545.5" y2="412.203" stroke="#0c120c" stroke-width="15" stroke-linecap="round"/>
<line x1="1633.61" y1="353.535" x2="1713.17" y2="413.489" stroke="#0c120c" stroke-width="15" stroke-linecap="round"/>
<line x1="1629.48" y1="474.143" x2="1545.48" y2="535.172" stroke="#0c120c" stroke-width="15" stroke-linecap="round"/>
<line x1="1629.95" y1="412.797" x2="1546.62" y2="473.342" stroke="#0c120c" stroke-width="15" stroke-linecap="round"/>
<line x1="96" y1="179.998" x2="96" y2="673.998" stroke="#0c120c" stroke-width="18" stroke-linecap="round"/>
<line x1="98.2815" y1="230.816" x2="178.145" y2="290.998" stroke="#0c120c" stroke-width="15" stroke-linecap="round"/>
<line x1="95.0991" y1="230.141" x2="11.9078" y2="290.583" stroke="#0c120c" stroke-width="15" stroke-linecap="round"/>
<line x1="92.6177" y1="292.854" x2="11.3924" y2="351.867" stroke="#0c120c" stroke-width="15" stroke-linecap="round"/>
<line x1="103.095" y1="295.059" x2="179.933" y2="352.961" stroke="#0c120c" stroke-width="15" stroke-linecap="round"/>
<line x1="103.817" y1="479.103" x2="179.21" y2="535.917" stroke="#0c120c" stroke-width="15" stroke-linecap="round"/>
<line x1="99.2331" y1="414.533" x2="178.794" y2="474.487" stroke="#0c120c" stroke-width="15" stroke-linecap="round"/>
<line x1="91.077" y1="355.11" x2="11.1219" y2="413.201" stroke="#0c120c" stroke-width="15" stroke-linecap="round"/>
<line x1="99.2331" y1="354.533" x2="178.794" y2="414.487" stroke="#0c120c" stroke-width="15" stroke-linecap="round"/>
<line x1="95.0991" y1="475.141" x2="11.0988" y2="536.17" stroke="#0c120c" stroke-width="15" stroke-linecap="round"/>
<line x1="95.5745" y1="413.795" x2="12.2423" y2="474.34" stroke="#0c120c" stroke-width="15" stroke-linecap="round"/>
<line x1="298.5" y1="9.99658" x2="298.5" y2="662.003" stroke="#0c120c" stroke-width="18" stroke-linecap="round"/>
<line x1="294.612" y1="246.314" x2="214.899" y2="326.026" stroke="#0c120c" stroke-width="16" stroke-linecap="round"/>
<line x1="301.314" y1="163" x2="380.948" y2="242.634" stroke="#0c120c" stroke-width="16" stroke-linecap="round"/>
<line x1="294.079" y1="80.942" x2="214.367" y2="160.654" stroke="#0c120c" stroke-width="16" stroke-linecap="round"/>
<line x1="304.516" y1="83.0084" x2="382.029" y2="160.521" stroke="#0c120c" stroke-width="16" stroke-linecap="round"/>
<line x1="292.612" y1="165.314" x2="214.314" y2="243.612" stroke="#0c120c" stroke-width="16" stroke-linecap="round"/>
<path d="M306.971 240.343L301.314 234.686L290 246L295.657 251.657L306.971 240.343ZM375.998 331.998C379.123 335.123 384.188 335.123 387.312 331.998C390.436 328.874 390.436 323.809 387.312 320.685L375.998 331.998ZM295.657 251.657L375.998 331.998L387.312 320.685L306.971 240.343L295.657 251.657Z" fill="#0c120c"/>
<line x1="294.612" y1="329.314" x2="214.899" y2="409.026" stroke="#0c120c" stroke-width="16" stroke-linecap="round"/>
<line x1="292.612" y1="413.314" x2="214.314" y2="491.612" stroke="#0c120c" stroke-width="16" stroke-linecap="round"/>
<line x1="301.314" y1="411" x2="380.948" y2="490.634" stroke="#0c120c" stroke-width="16" stroke-linecap="round"/>
<line x1="301.314" y1="329" x2="381.655" y2="409.341" stroke="#0c120c" stroke-width="16" stroke-linecap="round"/>
<line x1="1427.5" y1="10" x2="1427.5" y2="662.007" stroke="#0c120c" stroke-width="18" stroke-linecap="round"/>
<line x1="1423.61" y1="246.317" x2="1343.9" y2="326.029" stroke="#0c120c" stroke-width="16" stroke-linecap="round"/>
<line x1="1430.31" y1="163.003" x2="1509.95" y2="242.638" stroke="#0c120c" stroke-width="16" stroke-linecap="round"/>
<line x1="1423.08" y1="80.9454" x2="1343.37" y2="160.658" stroke="#0c120c" stroke-width="16" stroke-linecap="round"/>
<line x1="1433.52" y1="83.0118" x2="1511.03" y2="160.525" stroke="#0c120c" stroke-width="16" stroke-linecap="round"/>
<line x1="1421.61" y1="165.317" x2="1343.31" y2="243.615" stroke="#0c120c" stroke-width="16" stroke-linecap="round"/>
<path d="M1435.97 240.347L1430.31 234.69L1419 246.003L1424.66 251.66L1435.97 240.347ZM1505 332.002C1508.12 335.126 1513.19 335.126 1516.31 332.002C1519.44 328.878 1519.44 323.812 1516.31 320.688L1505 332.002ZM1424.66 251.66L1505 332.002L1516.31 320.688L1435.97 240.347L1424.66 251.66Z" fill="#0c120c"/>
<line x1="1423.61" y1="329.317" x2="1343.9" y2="409.029" stroke="#0c120c" stroke-width="16" stroke-linecap="round"/>0c120c
<line x1="1421.61" y1="413.317" x2="1343.31" y2="491.615" stroke="#0c120c" stroke-width="16" stroke-linecap="round"/>
<line x1="1430.31" y1="411.003" x2="1509.95" y2="490.638" stroke="#0c120c" stroke-width="16" stroke-linecap="round"/>
<line x1="1430.31" y1="329.003" x2="1510.66" y2="409.345" stroke="#0c120c" stroke-width="16" stroke-linecap="round"/>
<defs>
<filter id="filter0_d_112_59" x="811" y="256" width="104" height="105" filterUnits="userSpaceOnUse" color-interpolation-filters="sRGB">
<feFlood flood-opacity="0" result="BackgroundImageFix"/>
<feColorMatrix in="SourceAlpha" type="matrix" values="0 0 0 0 0 0 0 0 0 0 0 0 0 0 0 0 0 0 127 0" result="hardAlpha"/>
<feOffset dy="4"/>
<feGaussianBlur stdDeviation="2"/>
<feComposite in2="hardAlpha" operator="out"/>
<feColorMatrix type="matrix" values="0 0 0 0 0 0 0 0 0 0 0 0 0 0 0 0 0 0 0.25 0"/>
<feBlend mode="normal" in2="BackgroundImageFix" result="effect1_dropShadow_112_59"/>
<feBlend mode="normal" in="SourceGraphic" in2="effect1_dropShadow_112_59" result="shape"/>
</filter>
</defs>
</svg>
